<svg viewBox="298 261 303 377" fill="none" xmlns="http://www.w3.org/2000/svg">
<path d="M498.468 636.693C496.89 636.761 495.339 636.788 493.761 636.788H406.243C400.025 636.788 393.902 636.248 387.981 635.237L399.378 598.025C404.26 582.07 399.378 564.726 386.888 553.666L369.692 538.439C360.562 530.347 355.342 518.735 355.342 506.542V433.401C355.342 428.762 354.56 424.149 353.076 419.752L300.031 263.032L392.701 393.668C397.098 399.859 399.836 407.075 400.645 414.627L406.553 469.25C408.158 484.234 417.262 497.384 430.722 504.182L463.388 520.65C476.484 527.258 485.466 539.909 487.435 554.435L498.468 636.693Z" fill="url(#paint0_linear_3474_3942)"/>
<path d="M599.995 369.238H599.968C585.267 349.318 563.269 336.033 538.776 332.337L486.46 324.421C479.001 323.274 471.786 321.143 464.988 318.055C458.218 314.966 451.825 310.96 446.066 306.105C434.48 296.34 420.683 289.543 405.861 286.279L300.148 263.054L300.027 263.027L300 263H492.785C547.705 263 593.831 304.918 599.415 358.368C599.806 361.955 599.995 365.57 599.995 369.238Z" fill="#92D1C3"/>
<path d="M600.001 369.244V369.271C600.001 369.271 600.001 369.271 600.001 369.298C600.001 370.201 599.974 371.091 599.947 372.022C599.947 372.696 599.92 373.411 599.88 374.086C599.88 374.423 599.853 374.746 599.826 375.084C599.799 375.691 599.758 376.271 599.731 376.85C599.704 377.093 599.704 377.363 599.677 377.606C599.61 378.401 599.556 379.157 599.461 379.939C599.461 380.033 599.434 380.128 599.434 380.209C599.367 380.883 599.286 381.598 599.192 382.272C599.192 382.488 599.138 382.704 599.124 382.933C599.03 383.783 598.908 384.606 598.76 385.455C598.666 386.089 598.585 386.723 598.463 387.33C598.275 388.476 598.045 389.569 597.829 390.702C597.654 391.484 597.492 392.28 597.317 393.062C597.29 393.156 597.263 393.251 597.263 393.332C597.047 394.154 596.845 395.004 596.629 395.84C596.454 396.501 596.292 397.149 596.09 397.809C595.699 399.293 595.24 400.75 594.781 402.206C594.606 402.746 594.444 403.272 594.242 403.784C593.972 404.607 593.689 405.389 593.392 406.212C592.543 408.518 591.598 410.784 590.573 413.009C590.236 413.792 589.872 414.587 589.481 415.343C589.144 416.071 588.807 416.799 588.443 417.528C588.227 417.919 588.024 418.31 587.836 418.688C587.566 419.173 587.296 419.686 587.04 420.171C584.612 424.595 581.888 428.843 578.88 432.849C578.489 433.389 578.084 433.915 577.666 434.427C576.331 436.153 574.969 437.826 573.539 439.458C572.595 440.523 571.624 441.548 570.653 442.587C570.073 443.194 569.466 443.801 568.886 444.408C567.942 445.352 566.944 446.296 565.973 447.199C564.975 448.143 563.963 449.02 562.938 449.924L300.047 263.046L300.168 263.073L405.88 286.298C420.703 289.548 434.5 296.359 446.086 306.124C451.845 310.979 458.224 314.985 465.008 318.073C471.806 321.162 479.021 323.293 486.48 324.439L538.796 332.356C563.275 336.052 585.287 349.337 599.988 369.257H600.001V369.244Z" fill="url(#paint1_linear_3474_3942)"/>
<path d="M598.172 550.257C589.203 598.028 548.31 634.538 498.462 636.709L487.416 554.465C485.447 539.939 476.464 527.288 463.368 520.68L430.702 504.212C417.242 497.414 408.138 484.264 406.533 469.28L400.626 414.657C399.83 407.104 397.079 399.889 392.682 393.698L300.012 263.062H300.039L455.006 410.746C458.432 414.023 461.197 417.867 463.22 422.061C463.409 422.48 463.638 422.911 463.8 423.343C463.8 423.343 463.827 423.343 463.827 423.37C465.499 427.227 466.578 431.341 466.942 435.562C468.25 450.937 478.555 464.061 493.148 469.037L511.099 475.16L553.894 489.754C563.227 492.937 570.995 499.518 575.662 508.217L598.172 550.257Z" fill="url(#paint2_linear_3474_3942)"/>
<path d="M399.358 598.026L387.961 635.237C337.992 626.565 300.012 582.988 300.012 530.55V263.046L353.057 419.767C354.54 424.163 355.323 428.776 355.323 433.416V506.556C355.323 518.749 360.542 530.361 369.673 538.453L386.869 553.68C399.358 564.726 404.24 582.071 399.358 598.026Z" fill="url(#paint3_linear_3474_3942)"/>
<path d="M600.001 530.579C600.001 537.309 599.367 543.864 598.18 550.257L575.67 508.217C571.004 499.518 563.235 492.936 553.902 489.754L511.107 475.16L493.156 469.037C478.563 464.061 468.259 450.937 466.95 435.562C466.586 431.341 465.521 427.227 463.835 423.37C463.835 423.343 463.808 423.343 463.808 423.343C463.632 422.911 463.417 422.466 463.228 422.061C461.218 417.853 458.44 414.023 455.014 410.746L300.047 263.062L562.938 449.912C585.624 469.388 600.001 498.291 600.001 530.579Z" fill="url(#paint4_linear_3474_3942)"/>
<defs>
<linearGradient id="paint0_linear_3474_3942" x1="310.106" y1="258.721" x2="453.416" y2="634.402" gradientUnits="userSpaceOnUse">
<stop stop-color="#AF2B56"/>
<stop offset="1" stop-color="#BC2B5F"/>
</linearGradient>
<linearGradient id="paint1_linear_3474_3942" x1="300.051" y1="356.48" x2="600.005" y2="356.48" gradientUnits="userSpaceOnUse">
<stop stop-color="#57A09D"/>
<stop offset="1" stop-color="#90D0C3"/>
</linearGradient>
<linearGradient id="paint2_linear_3474_3942" x1="294.788" y1="269.631" x2="566.024" y2="608.069" gradientUnits="userSpaceOnUse">
<stop offset="1.02703e-07" stop-color="#E9E779"/>
<stop offset="0.3171" stop-color="#E5C266"/>
<stop offset="0.594" stop-color="#DF8646"/>
<stop offset="1" stop-color="#D9522A"/>
</linearGradient>
<linearGradient id="paint3_linear_3474_3942" x1="287.763" y1="233.165" x2="344.818" y2="530.844" gradientUnits="userSpaceOnUse">
<stop stop-color="#35123A"/>
<stop offset="1" stop-color="#9E254E"/>
</linearGradient>
<linearGradient id="paint4_linear_3474_3942" x1="300.051" y1="406.652" x2="600.005" y2="406.652" gradientUnits="userSpaceOnUse">
<stop stop-color="#EEDA86"/>
<stop offset="1" stop-color="#E38058"/>
</linearGradient>
</defs>
</svg>
