<svg height="2500" viewBox="10.9 10.9 942 942" width="2500" xmlns="http://www.w3.org/2000/svg">
  <circle cx="481.9" cy="481.9" fill="#008de4" r="471"/>
  <g fill="#fff">
    <path d="m582.6 218.1h-236.6l-19.6 109.6 213.6.3c105.2 0 136.3 38.2 135.4 101.5-.5 32.5-14.5 87.4-20.6 105.2-16.2 47.4-49.5 101.6-174.3 101.4l-207.7-.1-19.7 109.7h236.1c83.3 0 118.7-9.7 156.2-27 83.2-38.4 132.7-120.5 152.5-227.6 29.6-159.5-7.2-273-215.3-273"/>
    <path d="m243.8 426.8c-62 0-70.9 40.4-76.7 64.8-7.7 32-10.2 44.9-10.2 44.9h242.3c62 0 70.9-40.4 76.7-64.8 7.7-32 10.2-44.9 10.2-44.9z"/>
  </g>
</svg>