<?xml version="1.0" encoding="utf-8"?>
<!-- Generator: Adobe Illustrator 26.0.3, SVG Export Plug-In . SVG Version: 6.00 Build 0)  -->
<svg version="1.0" id="katman_1" xmlns="http://www.w3.org/2000/svg" xmlns:xlink="http://www.w3.org/1999/xlink" x="0px" y="0px"
	 viewBox="150 50 500 500" style="enable-background:new 0 0 800 900;" xml:space="preserve">
<style type="text/css">
	.st0{fill:#3AB83A;}
	.st1{fill:#FFFFFF;fill-opacity:0.602;}
	.st2{fill:#FFFFFF;}
	.st3{fill:#FFFFFF;fill-opacity:0.2;}
</style>
<path class="st0" d="M399.8,544.8C535.2,544.8,645,435,645,299.6c0-135.4-109.8-245.2-245.2-245.2c-135.4,0-245.2,109.8-245.2,245.2
	C154.7,435,264.4,544.8,399.8,544.8z"/>
<path class="st1" d="M399.8,136.1V257l102.1,45.6L399.8,136.1z"/>
<path class="st2" d="M399.8,136.1L297.7,302.6L399.8,257V136.1z"/>
<path class="st1" d="M399.8,380.9V463L502,321.6L399.8,380.9z"/>
<path class="st2" d="M399.8,463v-82.1l-102.1-59.3L399.8,463z"/>
<path class="st3" d="M399.8,361.9l102.1-59.3L399.8,257V361.9z"/>
<path class="st1" d="M297.7,302.6l102.1,59.3V257L297.7,302.6z"/>
</svg>
